# This file uses centimeters as units for non-parametric coordinates.

mtllib square_cube_tall_45.mtl
g default
v -1.247947 -5.917510 0.885583
v 1.247947 -5.917510 0.885583
v -1.247947 5.917510 0.885583
v 1.247947 5.917510 0.885583
v -1.247947 5.917510 -1.226459
v 1.247947 5.917510 -1.226459
v -1.247947 -5.917510 -1.226459
v 1.247947 -5.917510 -1.226459
v 1.247947 7.682374 -1.226458
v -1.247947 7.682374 -1.226458
v 1.247947 -7.667179 0.885575
v -1.247947 -7.667179 0.885575
vt 0.375000 0.000000
vt 0.625000 0.000000
vt 0.375000 0.250000
vt 0.625000 0.250000
vt 0.375000 0.500000
vt 0.625000 0.500000
vt 0.375000 0.750000
vt 0.625000 0.750000
vt 0.375000 1.000000
vt 0.625000 1.000000
vt 0.875000 0.000000
vt 0.875000 0.250000
vt 0.125000 0.000000
vt 0.125000 0.250000
vt 0.625000 0.500000
vt 0.375000 0.500000
vt 0.625000 1.000000
vt 0.375000 1.000000
vn 0.000000 -0.000001 1.000000
vn 0.000000 -0.000001 1.000000
vn 0.000000 0.000000 1.000000
vn 0.000000 0.000000 1.000000
vn 0.000000 0.767358 0.641219
vn 0.000000 0.767358 0.641219
vn 0.000000 0.767358 0.641219
vn 0.000000 0.767358 0.641219
vn 0.000000 0.000000 -1.000000
vn 0.000000 0.000000 -1.000000
vn 0.000000 0.000000 -1.000000
vn 0.000000 0.000000 -1.000000
vn 0.000000 -0.770076 -0.637953
vn 0.000000 -0.770076 -0.637953
vn 0.000000 -0.770076 -0.637953
vn 0.000000 -0.770076 -0.637953
vn 1.000000 0.000000 0.000000
vn 1.000000 0.000000 0.000000
vn 1.000000 -0.000000 0.000000
vn 1.000000 -0.000000 0.000000
vn -1.000000 0.000000 0.000000
vn -1.000000 0.000000 0.000000
vn -1.000000 -0.000000 0.000000
vn -1.000000 -0.000000 0.000000
vn 1.000000 -0.000000 0.000000
vn 0.000000 0.000000 -1.000000
vn 0.000000 0.000000 -1.000000
vn -1.000000 -0.000000 0.000000
vn 1.000000 0.000000 0.000000
vn 0.000000 -0.000004 1.000000
vn 0.000000 -0.000004 1.000000
vn -1.000000 0.000000 0.000000
s 1
g Wedge_45_Tall_Cube
usemtl initialShadingGroup
f 1/1/1 2/2/2 4/4/3 3/3/4
s off
f 3/3/5 4/4/6 9/15/7 10/16/8
s 2
f 5/5/9 6/6/10 8/8/11 7/7/12
s off
f 7/7/13 8/8/14 11/17/15 12/18/16
s 3
f 2/2/17 8/11/18 6/12/19 4/4/20
s 4
f 7/13/21 1/1/22 3/3/23 5/14/24
s 3
f 4/4/20 6/6/19 9/15/25
s 2
f 6/6/10 5/5/9 10/16/26 9/15/27
s 4
f 5/5/24 3/3/23 10/16/28
s 3
f 8/8/18 2/10/17 11/17/29
s 1
f 2/10/2 1/9/1 12/18/30 11/17/31
s 4
f 1/9/22 7/7/21 12/18/32
